PathFileType	4	(X/Y/Z)	T1_P1_Vision_Movement_1_0-686.trc
DataRate	CameraRate	NumFrames	NumMarkers	Units	OrigDataRate	OrigDataStartFrame	OrigNumFrames
60	60	4	27	m	60	428	686
Frame#	Time	RHip			RKnee			RAnkle			RBigToe			RSmallToe			RHeel			LHip			LKnee			LAnkle			LBigToe			LSmallToe			LHeel			Neck			Head			Nose			RShoulder			RElbow			RWrist			RThumb			RIndex			RPinky			LShoulder			LElbow			LWrist			LThumb			LIndex			LPinky		
		X1	Y1	Z1	X2	Y2	Z2	X3	Y3	Z3	X4	Y4	Z4	X5	Y5	Z5	X6	Y6	Z6	X7	Y7	Z7	X8	Y8	Z8	X9	Y9	Z9	X10	Y10	Z10	X11	Y11	Z11	X12	Y12	Z12	X13	Y13	Z13	X14	Y14	Z14	X15	Y15	Z15	X16	Y16	Z16	X17	Y17	Z17	X18	Y18	Z18	X19	Y19	Z19	X20	Y20	Z20	X21	Y21	Z21	X22	Y22	Z22	X23	Y23	Z23	X24	Y24	Z24	X25	Y25	Z25	X26	Y26	Z26	X27	Y27	Z27
429	7.15	-97.52659975139004	3865.182585850728	-713.4705149163132	271.91880485888964	3992.7625162864133	-685.9819317521425	617.1132128252467	4223.679206277178	-693.506767906935	699.1191574612473	4100.23927706508	-641.4868087656059	710.5749191301078	4160.503978018757	-738.2787736381472	661.2405382267974	4288.103129988523	-696.9710469351331	-116.71351296652259	3972.7741710644696	-519.8760091949828	226.1752322250411	4056.2280621674845	-509.9963416932005	572.4662260814349	4291.765504535109	-533.9228498218126	660.1702730189794	4179.1276866982025	-490.3831330774996	636.2413356565205	4257.212711761714	-436.63916135217664	623.3098080965759	4340.507339845185	-561.1397522128617	-702.654066997601	3753.691122876783	-599.4382986716421	-953.3343469215353	3661.9351048896333	-574.2235994168027	-792.8761232287742	3675.304254180003	-548.4799221295705	-600.1726015772329	3694.3531310994435	-701.9326285072779	-496.7261934142076	3519.782561843173	-736.1300258053809	-672.3073201049256	3440.3337331320245	-664.8194338211013	-770.2235526600138	3401.7337773727436	-617.1247800064323	-763.9262459925721	3364.3418620390107	-596.5512240852098	-754.8493698618037	3400.059782904977	-644.3821013799151	-635.3240145934083	3900.1333855496123	-506.2460942221964	-388.62611319113626	4044.56099742185	-466.5763125202392	-124.24485895745977	3970.058224585689	-376.78843665975074	-0.3331896752899251	3964.948219908199	-360.95743321437317	19.704756131358334	3958.134656219895	-344.04823508588197	14.399506664254018	4073.378211248778	-366.18608166208037
430	7.166666666666667	-98.23844864463325	3892.9708450499247	-721.2783220392536	265.91721264973575	3989.0039152951663	-684.1254096900745	617.0365479961081	4223.539681429511	-693.495589350499	692.1861548136095	4095.415027183466	-639.1859961789651	696.9913432950439	4152.168200824273	-736.4078415717385	661.2671844078266	4286.843767381391	-696.5636412785198	-117.30588969864512	3952.5996643536973	-505.6994175266689	226.21347387413223	4056.496291278496	-510.1758606881005	572.2449383315853	4291.189946671909	-533.6990415393414	655.269669217984	4147.0704699743565	-483.90933994472164	631.2906430347931	4224.574792359732	-429.9476331067895	622.8796109487587	4340.0036548867165	-560.6862533744086	-702.7083112930377	3753.503621596182	-599.2636181626543	-948.4511672285913	3662.5861837778048	-574.0145422913471	-797.5258738537776	3673.9021921781277	-548.3992178202674	-600.1485954251631	3694.536630753102	-701.9015310996531	-496.69614239525146	3519.8957049917217	-736.1105586709223	-673.3416533356858	3440.813819665494	-665.5431146506254	-769.9153003576913	3401.8217985969973	-617.1251883101164	-768.4610756591125	3387.867902231151	-604.7991275727226	-754.7267667300209	3400.3809466125567	-644.2609107938662	-635.2909010219313	3900.0022427765325	-506.1722123212436	-388.5827144983632	4043.9321252665686	-466.27181518167225	-124.43619348889874	3969.9989480654153	-376.76040075115407	-0.3719959667798595	3964.9232814480074	-360.95069808061953	19.644582358043955	3958.1386638700524	-344.03989407831614	13.897498548282188	4042.922925809437	-359.92500194731406
431	7.183333333333334	-97.64814761736832	3865.02698837765	-713.3698186761701	260.71681408154024	3989.495987450252	-684.8025859945022	623.3355982878103	4226.76633472674	-693.1297591120464	699.0183950962075	4100.255664438836	-641.7132390718324	715.8232684577491	4181.862717818081	-754.927900528488	661.4789982586385	4287.340875291351	-696.8698336545872	-117.27677737630951	3952.3773268197488	-505.67277058933684	226.21128038861897	4056.5106921886636	-510.1459787811686	578.3608929257524	4295.371037229904	-533.4517781713187	650.5413661134746	4148.771547597783	-484.7807890480007	636.1099242933888	4256.878630996449	-436.53290029335494	628.3182526150099	4375.141613943372	-569.359415572472	-702.6936629917387	3753.6666240779564	-599.4036954031786	-948.4412252207512	3662.664735286248	-573.950090056864	-792.8854702389355	3675.0607131905763	-548.3659710468202	-602.1306366666872	3711.0198520725894	-716.0846074563716	-496.47287893879803	3519.6422669445305	-736.019124496298	-672.2530249203975	3441.016273556136	-664.6236006827872	-771.8586209009536	3412.646726564227	-626.5173442656665	-768.0252377259634	3384.0190445808	-595.6510932880013	-749.3165479751659	3401.6180937346385	-643.2635380159985	-635.3658925472085	3900.321262748639	-506.355209905516	-388.49646709647175	4043.2866430513864	-466.1626980244404	-119.95241920879332	3953.635770179308	-364.84820641489046	-0.19157333388647818	3964.885210093452	-360.91487760372604	19.765614881017445	3958.0424455688385	-344.0452226881221	14.174672660165086	4043.0140276829507	-359.9600804774966
432	7.2	-98.43904195516579	3892.762334781525	-721.11419868685	265.11335924522336	3988.5994122006623	-677.8301116972723	623.3438562046251	4226.219546268173	-692.7720435599239	691.997764905765	4095.968877071995	-639.3873664838969	710.3456910898012	4160.106180709656	-738.0055151961786	660.8475204512177	4285.529514778085	-693.572330428036	-117.39802747208302	3952.880232423256	-505.76589774348645	226.248971880287	4056.586691145412	-510.05865297568704	578.5329276215622	4295.236026458856	-533.3842955049225	655.5576378026752	4148.081083860761	-484.00427536258115	636.2300657882992	4256.954165807549	-436.56311683155803	628.5675944216922	4375.1554124718805	-569.3222046359681	-702.6871770341642	3753.410182372929	-599.2165029678789	-947.3856263701557	3637.995784367133	-568.1567309946449	-792.8501006665676	3675.0844702408235	-548.4464855274989	-600.1377830457994	3694.100822553172	-701.7815612497998	-496.35072530233	3519.711397440701	-735.9961850856427	-664.3453382663504	3444.549254941979	-660.2654833752986	-761.4057894055077	3394.3355149762024	-608.1865713409476	-766.1877336019018	3375.8446453037523	-593.3537777439324	-749.0019227490178	3400.288928035767	-636.1163365947735	-640.2979998239019	3898.6269658660412	-506.0773200924925	-388.50669947658713	4043.999547939558	-466.40217308015946	-120.06695759748112	3953.817015295334	-364.89762691894333	-0.5307932120036529	3964.895408409015	-360.95492083703726	20.44595450487996	3959.7362802984626	-350.8332663651864	14.15177115054569	4043.2808394107824	-360.15039612806976
